# Blender v2.76 (sub 0) OBJ File: 'aletas_traseras.blend'
# www.blender.org
mtllib aletas_traseras.mtl
o Cube.001_Cube.004
v -2.044535 0.158240 -0.196938
v -2.044535 0.163086 -0.196938
v -2.044535 0.158240 -0.595187
v -2.044535 0.163086 -0.595187
v -1.887959 0.138036 -0.196938
v -1.887959 0.173476 -0.196938
v -1.887959 0.141314 -0.595187
v -1.887959 0.173476 -0.595187
v -2.044535 0.158240 0.196938
v -2.044535 0.163086 0.196938
v -2.044535 0.158240 0.595187
v -2.044535 0.163086 0.595187
v -1.887959 0.138036 0.196938
v -1.887959 0.173476 0.196938
v -1.887959 0.141314 0.595187
v -1.887959 0.173476 0.595187
vn -1.000000 0.000000 0.000000
vn 0.000000 0.000000 -1.000000
vn 1.000000 0.000000 0.000000
vn 0.000000 0.000000 1.000000
vn -0.128000 -0.991700 -0.008200
vn -0.066200 0.997800 0.000000
vn -0.128000 -0.991700 0.008200
vn -0.107500 -0.994200 0.000000
usemtl None
s off
f 2//1 4//1 3//1
f 3//2 4//2 8//2
f 7//3 8//3 6//3
f 6//4 2//4 1//4
f 7//5 5//5 1//5
f 4//6 2//6 6//6
f 11//1 12//1 10//1
f 11//4 15//4 16//4
f 15//3 13//3 14//3
f 9//2 10//2 14//2
f 9//7 13//7 15//7
f 14//6 10//6 12//6
f 1//1 2//1 3//1
f 7//2 3//2 8//2
f 5//3 7//3 6//3
f 5//4 6//4 1//4
f 3//8 7//8 1//8
f 8//6 4//6 6//6
f 9//1 11//1 10//1
f 12//4 11//4 16//4
f 16//3 15//3 14//3
f 13//2 9//2 14//2
f 11//8 9//8 15//8
f 16//6 14//6 12//6
