# Blender v2.76 (sub 0) OBJ File: ''
# www.blender.org
mtllib caja.mtl
o Cube.001
v 1.000000 -0.979807 -1.000000
v 1.000000 -0.979807 1.000000
v -1.000000 -0.979807 1.000000
v -1.000000 -0.979807 -1.000000
v 0.978203 1.137013 -0.583857
v 0.869405 1.068199 0.902544
v -1.042807 1.250690 0.657050
v -1.025333 1.091796 -0.891029
v 0.048192 -0.979807 -1.000000
v 0.048192 -0.979807 1.000000
v 0.024712 1.115494 -0.730042
v 0.149494 1.086157 0.785712
vn 0.000000 -1.000000 -0.000000
vn -0.006800 0.994700 -0.102200
vn 0.994900 0.067100 0.075900
vn -0.085600 0.149800 0.985000
vn -0.999700 -0.020600 -0.009200
vn 0.000000 0.052500 -0.998600
vn 0.000000 0.127800 -0.991800
vn -0.156600 0.109500 0.981600
vn -0.025800 0.999400 0.021500
vn 0.135900 0.990700 0.008000
vn 0.999900 0.010300 0.000000
vn -0.000000 0.103200 0.994700
vn -0.999900 -0.012200 -0.000000
vn 0.147500 0.128000 -0.980700
vn 0.144500 0.192300 -0.970600
vn -0.000000 0.047500 0.998900
vn 0.017200 0.998700 0.047500
usemtl Material.001
s off
f 10//1 3//1 4//1
f 11//2 8//2 7//2
f 5//3 6//3 2//3
f 12//4 7//4 3//4
f 3//5 7//5 8//5
f 9//6 4//6 8//6
f 1//7 9//7 11//7
f 6//8 12//8 10//8
f 5//9 11//9 12//9
f 2//1 10//1 9//1
f 9//1 10//1 4//1
f 12//10 11//10 7//10
f 1//11 5//11 2//11
f 10//12 12//12 3//12
f 4//13 3//13 8//13
f 11//14 9//14 8//14
f 5//15 1//15 11//15
f 2//16 6//16 10//16
f 6//17 5//17 12//17
f 1//1 2//1 9//1
