# Blender v2.76 (sub 0) OBJ File: 'hélice.blend'
# www.blender.org
mtllib hélice.mtl
o Cube.001
v 2.630854 -0.116522 0.056331
v 2.630854 0.116522 0.056331
v 2.630854 -0.116522 -0.057283
v 2.630854 0.116522 -0.057283
v 2.908900 -0.041679 0.021656
v 2.908900 0.041679 0.021656
v 2.908900 -0.041679 -0.022608
v 2.908900 0.041679 -0.022608
v 2.630854 -0.043250 0.122902
v 2.630854 0.043250 0.122902
v 2.630854 0.043250 -0.123854
v 2.630854 -0.043250 -0.123854
v 2.922025 0.013893 -0.022608
v 2.922025 -0.013893 -0.022608
v 2.922025 0.013893 0.021656
v 2.922025 -0.013893 0.021656
v 2.788610 -0.100406 -0.038300
v 2.763932 -0.101427 -0.051088
v 2.767762 0.104130 -0.058207
v 2.788897 0.104161 -0.057286
v 2.763932 -0.101427 0.050136
v 2.788610 -0.100406 0.037348
v 2.788438 0.102573 0.057855
v 2.768219 0.102305 0.058163
v 2.827156 -0.025665 0.095457
v 2.729005 -0.037255 0.117759
v 2.789258 0.036189 0.109437
v 2.767256 0.035861 0.109586
v 2.729005 -0.037255 -0.118711
v 2.827156 -0.025665 -0.096409
v 2.766756 0.034675 -0.108785
v 2.789755 0.034226 -0.108751
v 2.827156 -0.076995 -0.041462
v 2.729005 -0.111765 -0.057127
v 2.729005 0.111765 -0.057127
v 2.827156 0.076995 -0.041462
v 2.729005 -0.111765 0.056175
v 2.827156 -0.076995 0.040509
v 2.827156 0.076995 0.040509
v 2.729005 0.111765 0.056175
v 2.827156 0.025665 0.095457
v 2.729005 0.037255 0.117759
v 2.729005 0.037255 -0.118711
v 2.827156 0.025665 -0.096409
v 2.767256 0.035861 0.109586
v 2.763932 -0.101427 -0.051088
v 2.797688 0.221780 0.381784
v 2.788610 -0.100406 0.037348
v 2.768219 0.102305 0.058163
v 2.779635 0.518716 -0.615543
v 2.815857 0.565670 -0.579534
v 2.745030 -0.855185 0.040337
v 2.758862 0.505455 0.589118
v 2.810469 0.347482 -0.303497
v 2.775837 -0.454674 -0.081208
v 2.789258 0.036189 0.109437
v 2.788610 -0.100406 -0.038300
v 2.777889 0.218687 0.383444
v 2.763932 -0.101427 0.050136
v 2.788438 0.102573 0.057855
v 2.806982 -0.835150 -0.038946
v 2.806192 0.453843 0.635963
v 2.771261 0.265044 -0.374810
v 2.759706 -0.460272 0.069665
v 2.778253 0.326671 0.314533
v 2.791492 0.354920 -0.302765
v 2.775900 -0.472983 0.062305
v 2.760075 0.323857 0.316318
v 2.792128 0.258993 -0.375602
v 2.790212 -0.468016 -0.071546
vn -1.000000 0.000000 0.000000
vn 0.427700 0.660500 -0.617100
vn 0.904200 0.427100 0.000000
vn 0.033700 0.672100 0.739700
vn 0.396600 -0.918000 0.000000
vn 0.048400 0.998800 0.000000
vn 0.079100 -0.635100 0.768400
vn 0.052300 0.000000 0.998600
vn 0.904200 -0.427100 0.000000
vn 1.000000 0.000000 0.000000
vn 0.610000 -0.288100 -0.738200
vn 0.614000 0.000000 -0.789300
vn 0.052300 0.000000 -0.998600
vn 0.221600 0.000000 -0.975100
vn 0.079100 -0.635100 -0.768400
vn 0.234700 -0.710300 -0.663600
vn 0.614000 0.000000 0.789300
vn 0.221600 0.000000 0.975100
vn 0.610000 -0.288100 0.738200
vn 0.234700 -0.710300 0.663600
vn 0.396600 0.918000 0.000000
vn 0.333900 0.942600 0.000000
vn 0.048400 -0.998800 0.000000
vn 0.427700 0.660500 0.617100
vn 0.994100 -0.026900 0.105300
vn 0.033700 0.672100 -0.739700
vn 0.228300 -0.216800 -0.949200
vn 0.166500 0.755500 0.633700
vn 0.359800 -0.678800 0.640100
vn -0.020000 0.540200 -0.841300
vn 0.200600 -0.160700 0.966400
vn -0.015700 -0.843200 -0.537400
vn 0.283800 -0.958900 0.000000
vn 0.519100 -0.854700 0.000000
vn 0.414000 0.665200 0.621400
vn 0.113900 0.632900 0.765800
vn 0.245300 0.568300 -0.785400
vn 0.603300 0.477500 -0.638800
vn 0.458300 0.042900 0.887800
vn 0.796100 -0.098600 0.597100
vn -0.999400 0.029300 0.019200
vn 0.000000 0.000000 1.000000
vn -0.178400 0.743900 -0.644000
vn -0.984200 -0.060400 0.166600
vn -0.180300 0.818400 -0.545600
vn 0.358000 -0.082400 0.930100
vn 0.988000 0.133500 -0.077300
vn 0.819300 0.505200 -0.271100
vn 0.169600 -0.730600 0.661400
vn 0.173700 -0.816300 0.550900
vn -0.989600 -0.093100 -0.109300
vn -0.999400 -0.033700 0.000000
vn 0.999900 0.003500 0.011900
vn 0.603000 0.074500 -0.794300
vn -0.236600 -0.732500 -0.638300
vn 0.985700 -0.086300 -0.144800
vn -0.983900 0.163500 0.072300
vn -0.031600 0.712300 0.701200
vn -0.220600 -0.667600 -0.711100
vn -0.851300 0.450900 0.268400
vn 0.313700 0.741900 0.592600
vn 0.523600 -0.051600 -0.850400
vn 0.610000 0.288100 -0.738200
vn 0.079100 0.635100 0.768400
vn 0.033700 -0.672100 0.739700
vn 0.427700 -0.660500 -0.617100
vn 0.033700 -0.672100 -0.739700
vn 0.329300 -0.601600 -0.727800
vn 0.427700 -0.660500 0.617100
vn 0.329300 -0.601600 0.727800
vn 0.610000 0.288100 0.738200
vn 1.000000 0.004400 0.000000
vn 0.079100 0.635100 -0.768400
vn 0.359800 -0.678800 -0.640100
vn -0.039300 0.461000 0.886500
vn 0.228300 -0.216700 0.949200
vn 0.230200 0.857200 -0.460600
vn 0.015900 -0.777700 0.628400
vn 0.245700 0.565300 -0.787500
vn 0.605500 0.492900 0.624800
vn 0.188100 0.599400 0.778000
vn 0.103500 0.633700 -0.766700
vn 0.365400 0.680200 -0.635400
vn 0.442300 0.044900 0.895700
vn 0.992600 0.054900 0.108200
vn -0.990000 -0.121200 0.072800
vn -0.020000 0.752800 -0.658000
vn -0.824100 -0.473200 0.311300
vn 0.999600 -0.007600 -0.025700
vn 0.986800 0.102000 -0.126100
vn 0.016200 -0.831900 0.554700
vn -0.794800 0.074300 -0.602300
vn -0.994300 0.005900 -0.106100
vn 0.986300 -0.152200 -0.064000
vn 0.455200 0.090900 -0.885700
vn -0.014000 -0.764700 -0.644200
vn 0.852900 -0.417600 -0.313400
vn -0.999900 0.016500 -0.002700
vn 0.283900 0.655500 0.699800
vn -0.984900 0.135100 0.108100
usemtl None
s off
f 10//1 2//1 4//1
f 44//2 36//2 8//2
f 8//3 6//3 15//3
f 40//4 2//4 10//4
f 7//5 5//5 38//5
f 35//6 4//6 2//6
f 37//7 26//7 9//7
f 26//8 42//8 10//8
f 14//9 16//9 5//9
f 13//10 15//10 16//10
f 30//11 14//11 7//11
f 44//12 13//12 14//12
f 9//1 12//1 3//1
f 10//1 11//1 12//1
f 11//13 43//13 29//13
f 43//14 44//14 30//14
f 12//15 29//15 34//15
f 29//16 30//16 33//16
f 15//17 41//17 25//17
f 41//18 42//18 26//18
f 5//19 16//19 25//19
f 38//20 25//20 26//20
f 36//21 39//21 6//21
f 35//22 40//22 39//22
f 34//23 37//23 1//23
f 6//24 39//24 41//24
f 48//25 67//25 70//25
f 11//26 4//26 35//26
f 18//27 34//27 33//27
f 19//28 35//28 36//28
f 21//29 22//29 38//29
f 24//30 23//30 39//30
f 28//31 42//31 41//31
f 31//32 32//32 44//32
f 21//33 37//33 34//33
f 17//34 33//34 38//34
f 27//35 41//35 39//35
f 24//36 40//36 42//36
f 19//37 31//37 43//37
f 32//38 20//38 36//38
f 48//39 59//39 64//39
f 67//40 52//40 61//40
f 49//41 45//41 58//41
f 17//42 22//42 48//42
f 18//42 17//42 57//42
f 49//43 68//43 65//43
f 22//42 21//42 59//42
f 27//42 23//42 60//42
f 68//44 58//44 62//44
f 28//42 27//42 56//42
f 65//45 68//45 53//45
f 67//46 64//46 52//46
f 60//47 65//47 47//47
f 24//42 28//42 45//42
f 65//48 53//48 62//48
f 58//49 47//49 62//49
f 56//50 47//50 58//50
f 64//51 55//51 61//51
f 23//42 24//42 49//42
f 59//52 46//52 55//52
f 20//53 32//53 69//53
f 57//54 70//54 55//54
f 31//55 63//55 69//55
f 54//56 69//56 50//56
f 19//57 66//57 63//57
f 19//58 20//58 54//58
f 69//59 63//59 50//59
f 66//60 51//60 50//60
f 66//61 54//61 51//61
f 21//42 18//42 46//42
f 55//62 70//62 61//62
f 11//1 10//1 4//1
f 13//63 44//63 8//63
f 13//3 8//3 15//3
f 42//64 40//64 10//64
f 33//5 7//5 38//5
f 40//6 35//6 2//6
f 1//65 37//65 9//65
f 9//8 26//8 10//8
f 7//9 14//9 5//9
f 14//10 13//10 16//10
f 33//66 30//66 7//66
f 30//12 44//12 14//12
f 1//1 9//1 3//1
f 9//1 10//1 12//1
f 12//13 11//13 29//13
f 29//14 43//14 30//14
f 3//67 12//67 34//67
f 34//68 29//68 33//68
f 16//17 15//17 25//17
f 25//18 41//18 26//18
f 38//69 5//69 25//69
f 37//70 38//70 26//70
f 8//21 36//21 6//21
f 36//22 35//22 39//22
f 3//23 34//23 1//23
f 15//71 6//71 41//71
f 57//72 48//72 70//72
f 43//73 11//73 35//73
f 17//74 18//74 33//74
f 20//75 19//75 36//75
f 37//76 21//76 38//76
f 40//77 24//77 39//77
f 27//78 28//78 41//78
f 43//79 31//79 44//79
f 18//33 21//33 34//33
f 22//34 17//34 38//34
f 23//80 27//80 39//80
f 28//81 24//81 42//81
f 35//82 19//82 43//82
f 44//83 32//83 36//83
f 67//84 48//84 64//84
f 70//85 67//85 61//85
f 68//86 49//86 58//86
f 57//42 17//42 48//42
f 46//42 18//42 57//42
f 60//87 49//87 65//87
f 48//42 22//42 59//42
f 56//42 27//42 60//42
f 53//88 68//88 62//88
f 45//42 28//42 56//42
f 56//89 60//89 47//89
f 49//42 24//42 45//42
f 47//90 65//90 62//90
f 45//91 56//91 58//91
f 52//92 64//92 61//92
f 60//42 23//42 49//42
f 64//93 59//93 55//93
f 54//94 20//94 69//94
f 46//95 57//95 55//95
f 32//96 31//96 69//96
f 51//97 54//97 50//97
f 31//98 19//98 63//98
f 66//99 19//99 54//99
f 63//100 66//100 50//100
f 59//42 21//42 46//42
